<svg width="110" height="110" viewBox="0 0 110 110" fill="none" xmlns="http://www.w3.org/2000/svg">
<g clip-path="url(#clip0_442_43)">
<rect width="110" height="110" rx="20" fill="#77CDFF"/>
<path d="M55 78C55 78 74 69 74 55.5V39.75L55 33L36 39.75V55.5C36 69 55 78 55 78Z" stroke="white" stroke-width="6" stroke-linecap="round" stroke-linejoin="round"/>
<path d="M43.8564 44.6064L46.625 47.375M74.75 64.25V44.45C74.75 41.9298 74.75 40.6696 74.2595 39.707C73.8282 38.8603 73.1397 38.1719 72.293 37.7405C71.3305 37.25 70.0702 37.25 67.55 37.25H55.625M34.25 64.25V56.375M45.5 40.625C45.5 43.7316 42.9816 46.25 39.875 46.25C36.7684 46.25 34.25 43.7316 34.25 40.625C34.25 37.5184 36.7684 35 39.875 35C42.9816 35 45.5 37.5184 45.5 40.625ZM77 64.25V66.05C77 68.5702 77 69.8305 76.5095 70.793C76.0782 71.6397 75.3897 72.3282 74.543 72.7595C73.5805 73.25 72.3202 73.25 69.8 73.25H39.2C36.6798 73.25 35.4196 73.25 34.457 72.7595C33.6103 72.3282 32.9219 71.6397 32.4905 70.793C32 69.8305 32 68.5702 32 66.05V64.25H46.2588C46.8092 64.25 47.0843 64.25 47.3433 64.3121C47.5729 64.3672 47.7923 64.4581 47.9936 64.5816C48.2207 64.7207 48.4153 64.9153 48.8044 65.3043L48.9456 65.4457C49.3347 65.8347 49.5293 66.0293 49.7564 66.1684C49.9577 66.2919 50.1771 66.3828 50.4068 66.4379C50.6658 66.5 50.9409 66.5 51.4911 66.5H57.5089C58.0591 66.5 58.3342 66.5 58.5932 66.4379C58.8229 66.3828 59.0423 66.2919 59.2437 66.1684C59.4707 66.0293 59.6653 65.8347 60.0544 65.4457L60.1956 65.3043C60.5847 64.9153 60.7793 64.7207 61.0063 64.5816C61.2077 64.4581 61.4271 64.3672 61.6568 64.3121C61.9158 64.25 62.1909 64.25 62.7411 64.25H77Z" stroke="white" stroke-width="6" stroke-linecap="round" stroke-linejoin="round"/>
</g>
<defs>
<clipPath id="clip0_442_43">
<rect width="110" height="110" rx="20" fill="white"/>
</clipPath>
</defs>
</svg>
