<svg width="110" height="110" viewBox="0 0 110 110" fill="none" xmlns="http://www.w3.org/2000/svg">
<g clip-path="url(#clip0_442_60)">
<rect width="110" height="110" rx="20" fill="#77CDFF"/>
<path d="M45.5 38.0001C43.0291 38.0021 41.734 38.0334 40.7301 38.545C39.7892 39.0243 39.0243 39.7892 38.545 40.7301C38 41.7996 38 43.1997 38 46V70C38 72.8002 38 74.2005 38.545 75.27C39.0243 76.2108 39.7892 76.9757 40.7301 77.455C41.7996 78 43.1997 78 46 78H65C67.8003 78 69.2005 78 70.27 77.455C71.2108 76.9757 71.9757 76.2108 72.455 75.27C73 74.2005 73 72.8002 73 70V46C73 43.1997 73 41.7996 72.455 40.7301C71.9757 39.7892 71.2108 39.0243 70.27 38.545C69.266 38.0334 67.971 38.0021 65.5 38.0001M45.5 38.0001V43H65.5V38.0001M45.5 38.0001V37.2678C45.5 36.1359 45.9496 35.0504 46.75 34.25C47.5504 33.4496 48.6359 33 49.7678 33H61.2323C62.364 33 63.4497 33.4496 64.25 34.25C65.0503 35.0504 65.5 36.1359 65.5 37.2678V38.0001M65.5 53H60.5M65.5 65.5H60.5M45.5 53L48 55.5L53 50.5M45.5 65.5L48 68L53 63" stroke="white" stroke-width="5" stroke-linecap="round" stroke-linejoin="round"/>
</g>
<defs>
<clipPath id="clip0_442_60">
<rect width="110" height="110" rx="20" fill="white"/>
</clipPath>
</defs>
</svg>
